<svg id="Ebene_2" data-name="Ebene 2" xmlns="http://www.w3.org/2000/svg" viewBox="0 0 324.14 77.3"><defs><style>.cls-1{stroke:#000;stroke-miterlimit:10;}</style></defs><title>LOGO</title><path class="cls-1" d="M45,62.84c1.54,0,3.72-1.34,6.57-4a88,88,0,0,0,9.29-10.57,28.61,28.61,0,0,1-4.77.43q-5.55,0-8.19-2.6t-2.64-7.33c0-3.16,1-6.89,3.11-11.22a59.12,59.12,0,0,1,7.76-12.1,46.08,46.08,0,0,1,10.7-9.51q6-3.87,11.34-3.87Q84,2.06,84,8.19t-4.86,16.2a127.84,127.84,0,0,1-12.1,20,63.61,63.61,0,0,0,10.91-5.71Q83.64,35,85.47,34a7,7,0,0,1,2.78-.93,2.2,2.2,0,0,1,1.49.47,1.35,1.35,0,0,1,.55,1.06c0,.8-.92,1.37-2.77,1.71s-5.33,2-10.44,4.94a67.56,67.56,0,0,1-12.19,5.88A91.47,91.47,0,0,1,53.08,60.28q-5.67,5-9.25,5-4.95,0-4.94-7.07a54.37,54.37,0,0,1,.42-5.67c.29-2.48.43-4.08.43-4.82q0-6.64-4-6.65a10.22,10.22,0,0,0-3.07.51Q27.71,48.95,24.73,53t-7.07,9Q9.82,71.28,3.42,71.28c-1.7,0-2.56-.63-2.56-1.88q0-3.91,9.38-13.17A90.75,90.75,0,0,1,28.57,41.87Q33.94,33.68,37,29.12t7.84-10.87A110.5,110.5,0,0,1,53.46,8q5.72-5.7,9.72-5.71c1.08,0,1.62.31,1.62.94a.88.88,0,0,1-.51.85c-.8.46-1.42.8-1.88,1Q55.6,9.65,47.75,20q-5,6.74-13.55,19.35a10.57,10.57,0,0,1,3.19-.51,5.82,5.82,0,0,1,2.82.68,3.82,3.82,0,0,1,1.74,2,13.47,13.47,0,0,1,.86,5L41.7,58.06Q41.7,62.85,45,62.84Zm-39,6q3.08,0,7.93-6.09T27,44.25A70.87,70.87,0,0,0,12,56.57q-7.5,7.89-7.5,11C4.53,68.47,5,68.89,6.06,68.89Zm54.31-23a12.62,12.62,0,0,0,2.47-.25A146.94,146.94,0,0,0,75.59,25.07q5.32-10.49,5.32-15.81c0-3.55-1.47-5.33-4.43-5.33q-5.37,0-11.81,5.54A49.36,49.36,0,0,0,53.89,22.73q-4.35,7.71-4.35,13.77Q49.54,45.88,60.37,45.87Z" transform="translate(-0.36 0.15)"/><path class="cls-1" d="M96.34,50.05a2,2,0,0,1,1.11-.42c.34,0,.51.2.51.59v.17Q91.57,55.51,85.35,60t-9.13,4.48c-1.42,0-2.13-.77-2.13-2.3a7,7,0,0,1,2-4.61,39.91,39.91,0,0,1,4-4c1.33-1.14,2-1.89,2-2.26A2.05,2.05,0,0,0,81.55,50a5.13,5.13,0,0,0-1.06-1Q79,50.49,74.18,54.31L73.84,53c3.58-2.85,5.65-4.75,6.22-5.72v-.76a6.57,6.57,0,0,1,.43-2.9,9.25,9.25,0,0,1,2-2.13,5,5,0,0,1,2.22-1.37,1.5,1.5,0,0,1,1.06.43,1.16,1.16,0,0,1,.47.85,2.1,2.1,0,0,1-.3,1,6.12,6.12,0,0,1-.59.94c-.2.26-.47.57-.81.94a6.06,6.06,0,0,0-.64.76,3.06,3.06,0,0,0-.26.73,1.51,1.51,0,0,1-.55.85,1,1,0,0,0-.43.85,8.78,8.78,0,0,0,.68,2.26,8.07,8.07,0,0,1,.69,2.56c0,.54-1.06,1.82-3.16,3.84s-3.15,3.65-3.15,4.9c0,.68.31,1,.94,1q1.18,0,4.43-2.13l1-.68q5.55-3.84,10.4-7.76Z" transform="translate(-0.36 0.15)"/><path class="cls-1" d="M118.25,50.05a2,2,0,0,1,1.11-.42c.34,0,.51.2.51.59v.17a143.63,143.63,0,0,1-14.75,11q-5.88,3.66-10.65,3.67-3.84,0-3.84-3.76,0-5.53,5.63-11.38t9.46-5.84c1.42,0,2.13.8,2.13,2.39q-.42,4.7-13.47,12.62v.85c0,1.88,1,2.81,2.94,2.81a12.83,12.83,0,0,0,6.35-2,83.4,83.4,0,0,0,12.45-8.95ZM103.5,46.73q-1.87,0-4.81,3.15a16.27,16.27,0,0,0-4,7.16,37.29,37.29,0,0,0,6.91-5.24q2.81-2.77,2.81-3.92C104.44,47.11,104.13,46.73,103.5,46.73Z" transform="translate(-0.36 0.15)"/><path class="cls-1" d="M127.12,54c-.34,0-.51-.12-.51-.38s.19-.55.59-.9Q130,50.4,130,48.52c0-.8-.72-1.25-2.14-1.37q-3.82.09-9.16,5.54t-5.33,8.19c0,.62.36.94,1.07.94a5.25,5.25,0,0,0,2.85-1.45,55.52,55.52,0,0,0,6.06-5.12,2.88,2.88,0,0,1,2-1c.79,0,1.19.37,1.19,1.11a.92.92,0,0,1-.25.68c-.18.17-.49.52-.94,1.06s-.86,1-1.2,1.5a7.66,7.66,0,0,0-1.53,2.89c0,1.14.45,1.71,1.36,1.71,1.2,0,3.44-1.09,6.74-3.28s6.31-4.39,9-6.61l4.1-3.24a1.93,1.93,0,0,1,1.11-.42c.34,0,.51.2.51.59v.17a152.68,152.68,0,0,1-13.86,10.4q-7.29,4.86-9.59,4.86c-1.82,0-2.73-1-2.73-2.9a3.25,3.25,0,0,1,.26-1.28,2.57,2.57,0,0,0,.26-.85.35.35,0,0,0-.17-.34,21.61,21.61,0,0,0-3.29,2.3c-2,1.54-3.78,2.3-5.28,2.3s-2.26-.79-2.26-2.38,1.06-3.74,3.2-6.44a32.45,32.45,0,0,1,8.56-7.37A19.88,19.88,0,0,1,131,45.36a3.27,3.27,0,0,1,2,.6,2.13,2.13,0,0,1,.81,1.83c0,.83-.82,2.06-2.47,3.71S128.31,54,127.12,54Z" transform="translate(-0.36 0.15)"/><path class="cls-1" d="M144.34,49.37l-.17-.94c0-.28.59-.42,1.79-.42.68,0,1,.42,1,1.27S146,52,144,55s-2.94,4.45-2.94,4.56.11.18.34.18,2.85-2,7.88-6,8.06-6,9.08-6,1.54.36,1.54,1.07a4.57,4.57,0,0,1-.85,2.38q-.85,1.32-3.59,4.78c-1.81,2.3-2.78,3.53-2.89,3.71a1,1,0,0,0-.17.59c0,.23.18.34.55.34s3.17-1.93,8.4-5.79,8.21-5.8,9-5.8,1.11.31,1.11.94q0,1.7-3.75,6c-2.51,2.85-3.76,4.65-3.76,5.42s.3,1.15.9,1.15,2.09-.8,4.48-2.39q6.39-4.26,11.76-8.61L183,50a2.22,2.22,0,0,1,1.15-.43c.31,0,.47.17.47.51v.26q-18,15-22.25,15c-1.65,0-2.48-.68-2.48-2q0-1.71,2.48-5a23.59,23.59,0,0,0,2.47-3.63c0-.2-.07-.3-.22-.3s-2.47,1.62-7,4.86S150.39,64,149.54,64a1.33,1.33,0,0,1-1-.47,1.45,1.45,0,0,1-.42-1q0-1.53,3.66-6.22c2.45-3.07,3.67-4.74,3.67-5s-.17-.43-.51-.43S150.48,54,142.8,60.28l-4.26,3.41a3.19,3.19,0,0,1-1.66.94,2.09,2.09,0,0,1-1.07-.3,1,1,0,0,1-.51-.89,8.72,8.72,0,0,1,1.49-2.9c1-1.54,2.29-3.41,3.88-5.63C143.11,51.62,144.34,49.77,144.34,49.37Z" transform="translate(-0.36 0.15)"/><path class="cls-1" d="M263.9,1.8q0,3.75-7.08,9.8a218.36,218.36,0,0,1-20.11,14.75,195.57,195.57,0,0,0-13.43,20.38q-5.5,9.72-5.5,13.47T219.91,64a9.13,9.13,0,0,0,4.22-1.62,33.29,33.29,0,0,0,4.56-3.24l1.88-1.62a1.36,1.36,0,0,1,.93-.6c.29,0,.43.12.43.34q0,2.22-5.45,5.46t-8.19,3.24q-5.21,0-5.2-4t4.09-12.15a145.29,145.29,0,0,1,10.57-17.39Q213.7,41.44,206.7,46.13a191.6,191.6,0,0,1-18,21.44q-9,9.08-12.53,9.08c-1.31,0-2-.48-2-1.45q0-4.77,7.29-11.68a177.94,177.94,0,0,1,20.24-15.94,203.44,203.44,0,0,0,13.43-21.7q5.41-10.26,5.41-15,0-5.37-5.37-6.56a36.7,36.7,0,0,0-8.74-1q-4.56,0-7.24.26a49,49,0,0,0-5.93,1,12.62,12.62,0,0,0-5.24,2.34,4.89,4.89,0,0,0-2,3.93c0,1.76,1.54,3.15,4.64,4.17s6.57,2,10.4,3.07,6.3,2.28,7.38,3.75a5.45,5.45,0,0,1,.93,2.82c0,.39-.12.59-.38.59s-.5-.2-.72-.59c-.51-1.2-2.15-2.26-4.91-3.2a59,59,0,0,0-8.61-2.22,29.45,29.45,0,0,1-8.09-2.64q-3.63-1.83-3.63-4.56a6.87,6.87,0,0,1,1.79-4.73,11.66,11.66,0,0,1,4.22-3,27.41,27.41,0,0,1,6.18-1.62,99,99,0,0,1,13.17-.77q7.55,0,11.77,2.48a7.66,7.66,0,0,1,4.22,6.9q0,9.47-15.18,31.2,4.09-2.72,11.6-7.63t9.63-6.35a138.29,138.29,0,0,1,17.61-20q8.82-8.1,14.28-8.1C263.39.35,263.9.83,263.9,1.8ZM177.2,74.69q2.38,0,8.57-6.69a180.49,180.49,0,0,0,13.42-16.75Q176.6,67.11,176.6,73.92C176.6,74.43,176.8,74.69,177.2,74.69ZM260.32,2.31q-2.38,0-8,5.58a151.4,151.4,0,0,0-12.45,14.37q21-14.32,21-19.44A.45.45,0,0,0,260.32,2.31Z" transform="translate(-0.36 0.15)"/><path class="cls-1" d="M249.24,56.87q4.77,0,11.42-5.37l1.45.43q-8.35,7-14.41,7a4.33,4.33,0,0,1-1-.09,21.41,21.41,0,0,1-5,4.56,9.2,9.2,0,0,1-4.77,1.75c-2.17,0-3.24-1.21-3.24-3.62s2-5.64,6.05-9.68a13.5,13.5,0,0,1-1-5.2,5.59,5.59,0,0,1,2-4.43,6.7,6.7,0,0,1,4.56-1.71,6.13,6.13,0,0,1,4.39,1.71,6.42,6.42,0,0,1,1.79,4.86,17.69,17.69,0,0,1-3.16,9.72A5.13,5.13,0,0,0,249.24,56.87Zm-12.11,4.18c0,1.14.74,1.7,2.22,1.7s3.35-1.5,5.62-4.51a10.81,10.81,0,0,1-4.09-4.18Q237.13,58.16,237.13,61.05Zm9.38-5c1.76-3,2.64-5.47,2.64-7.55a6.18,6.18,0,0,0-1.53-4.6,4.44,4.44,0,0,0-3-1.49q-3,0-3,3.07A14.67,14.67,0,0,0,243,51.54,10.43,10.43,0,0,0,246.51,56Z" transform="translate(-0.36 0.15)"/><path class="cls-1" d="M261.94,49.37l-.17-.94c0-.28.59-.42,1.79-.42.68,0,1,.42,1,1.27s-1,2.75-2.94,5.67-2.94,4.45-2.94,4.56.11.18.34.18,2.86-2,7.89-6,8.05-6,9.07-6,1.54.36,1.54,1.07a4.57,4.57,0,0,1-.85,2.38c-.57.88-1.77,2.47-3.58,4.78s-2.79,3.53-2.9,3.71a1,1,0,0,0-.17.59c0,.23.18.34.55.34s3.17-1.93,8.4-5.79,8.21-5.8,8.95-5.8,1.11.31,1.11.94q0,1.7-3.75,6c-2.5,2.85-3.75,4.65-3.75,5.42s.29,1.15.89,1.15,2.09-.8,4.48-2.39q6.39-4.26,11.76-8.61L300.56,50a2.22,2.22,0,0,1,1.15-.43c.31,0,.47.17.47.51v.26q-18,15-22.25,15c-1.65,0-2.48-.68-2.48-2q0-1.71,2.48-5a23.59,23.59,0,0,0,2.47-3.63q0-.3-.21-.3t-7,4.86Q268.43,64,267.14,64a1.3,1.3,0,0,1-1-.47,1.42,1.42,0,0,1-.43-1q0-1.53,3.66-6.22c2.45-3.07,3.67-4.74,3.67-5s-.17-.43-.51-.43S268.08,54,260.4,60.28l-4.26,3.41a3.19,3.19,0,0,1-1.66.94,2.09,2.09,0,0,1-1.07-.3,1,1,0,0,1-.51-.89,8.72,8.72,0,0,1,1.49-2.9c1-1.54,2.29-3.41,3.88-5.63Q261.95,50,261.94,49.37Z" transform="translate(-0.36 0.15)"/><path class="cls-1" d="M322.38,50.05a2,2,0,0,1,1.11-.42c.34,0,.51.2.51.59v.17a143.63,143.63,0,0,1-14.75,11q-5.88,3.66-10.66,3.67-3.82,0-3.83-3.76,0-5.53,5.62-11.38t9.47-5.84c1.42,0,2.13.8,2.13,2.39q-.44,4.7-13.47,12.62v.85c0,1.88,1,2.81,2.94,2.81a12.83,12.83,0,0,0,6.35-2,83.92,83.92,0,0,0,12.45-8.95Zm-14.75-3.32q-1.87,0-4.82,3.15a16.25,16.25,0,0,0-4,7.16,37.29,37.29,0,0,0,6.91-5.24q2.81-2.77,2.81-3.92C308.57,47.11,308.26,46.73,307.63,46.73Z" transform="translate(-0.36 0.15)"/></svg>